<mxfile host="app.diagrams.net" modified="2024-04-24T08:55:32.909Z" agent="Mozilla/5.0 (Windows NT 10.0; Win64; x64) AppleWebKit/537.36 (KHTML, like Gecko) Chrome/124.0.0.0 Safari/537.36 Edg/124.0.0.0" etag="fq-Ycoxv8-IJ78oLl1B8" version="24.2.8" type="device">
  <diagram name="Page-1" id="B-e6oYYj8VVnITZ3tcCp">
    <mxGraphModel dx="1002" dy="569" grid="1" gridSize="10" guides="1" tooltips="1" connect="1" arrows="1" fold="1" page="1" pageScale="1" pageWidth="850" pageHeight="1100" math="0" shadow="0">
      <root>
        <mxCell id="0" />
        <mxCell id="1" parent="0" />
        <mxCell id="1n2ZvLpzjy4d3wXCNKDM-1" value="Provide Service number" style="ellipse;whiteSpace=wrap;html=1;fontSize=20;" vertex="1" parent="1">
          <mxGeometry x="345" y="190" width="160" height="80" as="geometry" />
        </mxCell>
        <mxCell id="1n2ZvLpzjy4d3wXCNKDM-2" value="&lt;font style=&quot;font-size: 20px;&quot;&gt;Veiw Bill&lt;/font&gt;" style="ellipse;whiteSpace=wrap;html=1;fontSize=20;" vertex="1" parent="1">
          <mxGeometry x="345" y="280" width="160" height="80" as="geometry" />
        </mxCell>
        <mxCell id="1n2ZvLpzjy4d3wXCNKDM-3" value="Login" style="ellipse;whiteSpace=wrap;html=1;fontSize=20;" vertex="1" parent="1">
          <mxGeometry x="345" y="100" width="160" height="80" as="geometry" />
        </mxCell>
        <mxCell id="1n2ZvLpzjy4d3wXCNKDM-4" value="Registration" style="ellipse;whiteSpace=wrap;html=1;fontSize=20;" vertex="1" parent="1">
          <mxGeometry x="345" y="10" width="160" height="80" as="geometry" />
        </mxCell>
        <mxCell id="1n2ZvLpzjy4d3wXCNKDM-5" value="Pay Bill" style="ellipse;whiteSpace=wrap;html=1;fontSize=20;" vertex="1" parent="1">
          <mxGeometry x="345" y="370" width="160" height="80" as="geometry" />
        </mxCell>
        <mxCell id="1n2ZvLpzjy4d3wXCNKDM-6" value="&amp;nbsp;Alert for payment" style="ellipse;whiteSpace=wrap;html=1;fontSize=18;" vertex="1" parent="1">
          <mxGeometry x="345" y="460" width="160" height="80" as="geometry" />
        </mxCell>
        <mxCell id="1n2ZvLpzjy4d3wXCNKDM-10" value="Paytm" style="ellipse;whiteSpace=wrap;html=1;fontSize=18;" vertex="1" parent="1">
          <mxGeometry x="660" y="220" width="160" height="80" as="geometry" />
        </mxCell>
        <mxCell id="1n2ZvLpzjy4d3wXCNKDM-12" value="User" style="ellipse;whiteSpace=wrap;html=1;fontSize=18;" vertex="1" parent="1">
          <mxGeometry x="60" y="230" width="160" height="80" as="geometry" />
        </mxCell>
        <mxCell id="1n2ZvLpzjy4d3wXCNKDM-13" value="" style="endArrow=none;html=1;rounded=0;exitX=1;exitY=0;exitDx=0;exitDy=0;" edge="1" parent="1" source="1n2ZvLpzjy4d3wXCNKDM-12" target="1n2ZvLpzjy4d3wXCNKDM-4">
          <mxGeometry width="50" height="50" relative="1" as="geometry">
            <mxPoint x="260" y="270" as="sourcePoint" />
            <mxPoint x="440" y="290" as="targetPoint" />
            <Array as="points" />
          </mxGeometry>
        </mxCell>
        <mxCell id="1n2ZvLpzjy4d3wXCNKDM-14" value="" style="endArrow=none;html=1;rounded=0;exitX=0.963;exitY=0.26;exitDx=0;exitDy=0;exitPerimeter=0;entryX=0.036;entryY=0.725;entryDx=0;entryDy=0;entryPerimeter=0;" edge="1" parent="1" source="1n2ZvLpzjy4d3wXCNKDM-12" target="1n2ZvLpzjy4d3wXCNKDM-3">
          <mxGeometry width="50" height="50" relative="1" as="geometry">
            <mxPoint x="280" y="240" as="sourcePoint" />
            <mxPoint x="330" y="190" as="targetPoint" />
          </mxGeometry>
        </mxCell>
        <mxCell id="1n2ZvLpzjy4d3wXCNKDM-15" value="" style="endArrow=none;html=1;rounded=0;" edge="1" parent="1" target="1n2ZvLpzjy4d3wXCNKDM-1">
          <mxGeometry width="50" height="50" relative="1" as="geometry">
            <mxPoint x="220" y="260" as="sourcePoint" />
            <mxPoint x="361" y="168" as="targetPoint" />
          </mxGeometry>
        </mxCell>
        <mxCell id="1n2ZvLpzjy4d3wXCNKDM-16" value="" style="endArrow=none;html=1;rounded=0;exitX=1;exitY=0.5;exitDx=0;exitDy=0;" edge="1" parent="1" source="1n2ZvLpzjy4d3wXCNKDM-12" target="1n2ZvLpzjy4d3wXCNKDM-2">
          <mxGeometry width="50" height="50" relative="1" as="geometry">
            <mxPoint x="234" y="271" as="sourcePoint" />
            <mxPoint x="371" y="178" as="targetPoint" />
          </mxGeometry>
        </mxCell>
        <mxCell id="1n2ZvLpzjy4d3wXCNKDM-17" value="" style="endArrow=none;html=1;rounded=0;entryX=0.031;entryY=0.375;entryDx=0;entryDy=0;entryPerimeter=0;" edge="1" parent="1" source="1n2ZvLpzjy4d3wXCNKDM-12" target="1n2ZvLpzjy4d3wXCNKDM-5">
          <mxGeometry width="50" height="50" relative="1" as="geometry">
            <mxPoint x="244" y="281" as="sourcePoint" />
            <mxPoint x="381" y="188" as="targetPoint" />
          </mxGeometry>
        </mxCell>
        <mxCell id="1n2ZvLpzjy4d3wXCNKDM-18" value="" style="endArrow=none;html=1;rounded=0;exitX=0.956;exitY=0.245;exitDx=0;exitDy=0;exitPerimeter=0;" edge="1" parent="1" source="1n2ZvLpzjy4d3wXCNKDM-6" target="1n2ZvLpzjy4d3wXCNKDM-10">
          <mxGeometry width="50" height="50" relative="1" as="geometry">
            <mxPoint x="530" y="483" as="sourcePoint" />
            <mxPoint x="667" y="390" as="targetPoint" />
          </mxGeometry>
        </mxCell>
      </root>
    </mxGraphModel>
  </diagram>
</mxfile>
